<?xml version="1.0" standalone="no"?>
<!DOCTYPE svg PUBLIC "-//W3C//DTD SVG 20010904//EN"
 "http://www.w3.org/TR/2001/REC-SVG-20010904/DTD/svg10.dtd">
<svg version="1.0" xmlns="http://www.w3.org/2000/svg"
 width="100.000000pt" height="100.000000pt" viewBox="0 0 100.000000 100.000000"
 preserveAspectRatio="xMidYMid meet">
<metadata>
Created by potrace 1.11, written by Peter Selinger 2001-2013
</metadata>
<g transform="translate(0.000000,100.000000) scale(0.100000,-0.100000)"
fill="#000000" stroke="none">
<path d="M549 891 c-104 -105 -117 -132 -92 -192 14 -33 181 -202 195 -197 4
2 48 43 97 91 131 129 133 164 17 280 -40 39 -84 82 -97 94 l-24 21 -96 -97z
m143 -188 c50 -49 50 -77 -1 -125 -21 -21 -41 -38 -45 -38 -15 0 -86 85 -86
102 0 20 67 98 85 98 5 0 26 -17 47 -37z"/>
<path d="M335 659 c-18 -5 -68 -47 -122 -102 l-92 -93 93 -96 c141 -145 170
-145 311 0 l94 96 -87 89 c-76 78 -133 119 -159 116 -4 0 -22 -5 -38 -10z"/>
<path d="M690 335 l-34 -35 34 -35 c43 -45 70 -44 109 1 l32 36 -36 34 c-20
19 -44 34 -54 34 -9 0 -32 -16 -51 -35z"/>
<path d="M492 295 c-90 -89 -91 -108 -4 -198 l68 -69 67 65 c92 90 91 120 -12
212 l-56 51 -63 -61z"/>
</g>
</svg>
